<svg xmlns="http://www.w3.org/2000/svg" viewBox="0 0 200 200">
  <defs>
    <clipPath id="sw-heart">
      <path d="M100,182 C100,182 6,122 6,64 C6,31 31,8 63,8 C81,8 100,23 100,39 C100,23 119,8 137,8 C169,8 194,31 194,64 C194,122 100,182 100,182Z"/>
    </clipPath>
  </defs>
  <!-- Outer gray ring -->
  <path d="M100,182 C100,182 6,122 6,64 C6,31 31,8 63,8 C81,8 100,23 100,39 C100,22 119,8 137,8 C169,8 194,31 194,64 C194,122 100,182 100,182Z" fill="#d0d0d0"/>
  <!-- Red fill (base) -->
  <rect x="0" y="0" width="200" height="200" fill="#DA291C" clip-path="url(#sw-heart)"/>
  <!-- Blue lower-left -->
  <polygon points="-5,210 -5,52 108,170" fill="#304CB2" clip-path="url(#sw-heart)"/>
  <!-- Gold upper-right -->
  <polygon points="100,39 137,8 194,8 194,68 148,58" fill="#FFB612" clip-path="url(#sw-heart)"/>
  <!-- White divider lines -->
  <line x1="-5" y1="52" x2="108" y2="170" stroke="white" stroke-width="6" clip-path="url(#sw-heart)"/>
  <line x1="100" y1="39" x2="194" y2="68" stroke="white" stroke-width="6" clip-path="url(#sw-heart)"/>
</svg>
